<svg viewBox="0 0 20 16" fill="none" xmlns="http://www.w3.org/2000/svg">
<g opacity="0.3">
<path d="M8.14259 10.5078C8.14259 11.2288 7.76699 12.4087 6.87795 12.4087C5.98891 12.4087 5.61331 11.2288 5.61331 10.5078C5.61331 9.78676 5.98891 8.60691 6.87795 8.60691C7.76699 8.60691 8.14259 9.78676 8.14259 10.5078V10.5078ZM18.27 8.7656C18.27 9.86611 18.1598 11.0322 17.667 12.043C16.361 14.6856 12.7704 14.6235 10.1998 14.6235C7.5878 14.6235 3.78354 14.7166 2.42587 12.043C1.92277 11.0425 1.7298 9.86611 1.7298 8.7656C1.7298 7.32011 2.20878 5.95396 3.15984 4.84655C2.98065 4.30147 2.89451 3.72879 2.89451 3.16301C2.89451 2.42129 3.06335 2.0487 3.39761 1.37598C4.95859 1.37598 5.9579 1.68647 7.14673 2.61793C8.14603 2.37989 9.17291 2.27294 10.2032 2.27294C11.1336 2.27294 12.0709 2.37299 12.9737 2.59033C14.1453 1.66922 15.1446 1.37598 16.6884 1.37598C17.0261 2.0487 17.1915 2.42129 17.1915 3.16301C17.1915 3.72879 17.1019 4.29112 16.9261 4.82585C17.8738 5.94361 18.27 7.32011 18.27 8.7656V8.7656ZM16.0543 10.5078C16.0543 8.99329 15.1343 7.65819 13.5216 7.65819C12.8703 7.65819 12.2466 7.77549 11.5919 7.86519C11.0785 7.94453 10.565 7.97558 10.0378 7.97558C9.51405 7.97558 9.00061 7.94453 8.48373 7.86519C7.83935 7.77549 7.20875 7.65819 6.55403 7.65819C4.94136 7.65819 4.02131 8.99329 4.02131 10.5078C4.02131 13.5368 6.7918 14.0025 9.20392 14.0025H10.8648C13.2873 14.0025 16.0543 13.5402 16.0543 10.5078V10.5078ZM13.208 8.60691C12.319 8.60691 11.9434 9.78676 11.9434 10.5078C11.9434 11.2288 12.319 12.4087 13.208 12.4087C14.0971 12.4087 14.4727 11.2288 14.4727 10.5078C14.4727 9.78676 14.0971 8.60691 13.208 8.60691Z" fill="white"/>
</g>
</svg>
