<svg viewBox="0 0 24 21" fill="none" xmlns="http://www.w3.org/2000/svg">
  <g clip-path="url(#clip0_3474_9485)">
    <path
      stroke="currentColour"
      d="M11.5243 12.4499C12.6589 12.4499 13.5786 11.5195 13.5786 10.3718C13.5786 9.22409 12.6589 8.2937 11.5243 8.2937C10.3897 8.2937 9.46997 9.22409 9.46997 10.3718C9.46997 11.5195 10.3897 12.4499 11.5243 12.4499Z"
      fill="currentColour"
    />
    <path
      stroke="currentColour"
      d="M11.5244 14.5596C17.5124 14.5596 22.3667 12.6848 22.3667 10.372C22.3667 8.0592 17.5124 6.18433 11.5244 6.18433C5.5363 6.18433 0.682007 8.0592 0.682007 10.372C0.682007 12.6848 5.5363 14.5596 11.5244 14.5596Z"
      stroke-width="1.09549"
    />
    <path
      stroke="currentColour"
      d="M7.93905 12.4657C10.9331 17.7115 14.9654 21.0266 16.9454 19.8702C18.9255 18.7138 18.1034 13.5238 15.1094 8.27807C12.1154 3.03231 8.08309 -0.282776 6.10305 0.873615C4.12301 2.03 4.94502 7.21997 7.93905 12.4657Z"
      stroke-width="1.09549"
    />
    <path
      stroke="currentColour"
      d="M7.93904 8.27816C4.945 13.5239 4.123 18.7139 6.10304 19.8703C8.08308 21.0267 12.1154 17.7116 15.1094 12.4658C18.1034 7.22006 18.9254 2.03009 16.9454 0.8737C14.9654 -0.28269 10.9331 3.0324 7.93904 8.27816Z"
      stroke-width="1.09549"
    />
  </g>
  <defs>
    <clipPath id="clip0_3474_9485">
      <rect width="23.0487" height="20.7438" fill="white" />
    </clipPath>
  </defs>
</svg>