<svg viewBox="0 0 21 21" fill="none" xmlns="http://www.w3.org/2000/svg">
  <g clip-path="url(#clip0_3474_9492)">
    <path
      stroke="currentColour"
      fill="currentColour"
      d="M19.7715 0C20.3085 3.40151e-05 20.7441 0.435655 20.7441 0.972656V19.7715C20.7441 20.3085 20.3085 20.7441 19.7715 20.7441H0.972656C0.435655 20.7441 3.40151e-05 20.3085 0 19.7715V0.972656C0 0.435634 0.435634 0 0.972656 0H19.7715ZM15.9795 8.42676C15.4414 8.42676 14.9317 8.48559 14.4502 8.60156C13.9687 8.71758 13.5446 8.89832 13.1787 9.14453C12.8128 9.39078 12.524 9.70475 12.3115 10.0859C12.0991 10.4671 11.9922 10.9227 11.9922 11.4531C11.9922 12.1303 12.1876 12.7083 12.5771 13.1865C12.9667 13.6646 13.5576 14.07 14.3506 14.4014C14.6621 14.5292 14.9526 14.6542 15.2217 14.7773C15.4907 14.9004 15.7231 15.0286 15.9189 15.1611C16.1147 15.2936 16.2696 15.4377 16.3828 15.5938C16.4963 15.75 16.5527 15.9281 16.5527 16.127C16.5527 16.2737 16.518 16.4098 16.4473 16.5352C16.3765 16.6606 16.2689 16.7699 16.125 16.8623C15.9811 16.9546 15.8016 17.0271 15.5869 17.0791C15.3721 17.1311 15.12 17.1572 14.832 17.1572C14.3411 17.1572 13.8545 17.0704 13.373 16.8975C12.8917 16.7247 12.4457 16.4656 12.0352 16.1201V18.3926C12.4034 18.5819 12.839 18.7247 13.3418 18.8193C13.8445 18.9141 14.3746 18.9609 14.9316 18.9609C15.4744 18.9609 15.9901 18.9089 16.4785 18.8047C16.9673 18.7005 17.3963 18.5292 17.7646 18.29C18.1326 18.0509 18.4238 17.7383 18.6387 17.3525C18.8534 16.9667 18.9609 16.4891 18.9609 15.9209C18.9609 15.5091 18.8999 15.148 18.7773 14.8379C18.6545 14.5277 18.4775 14.2513 18.2461 14.0098C18.0149 13.7684 17.7372 13.5521 17.4141 13.3604C17.0906 13.1686 16.7254 12.9878 16.3193 12.8174C16.022 12.6943 15.7555 12.574 15.5195 12.458C15.2835 12.342 15.0822 12.2243 14.917 12.1035C14.7519 11.9828 14.6248 11.8546 14.5352 11.7197C14.4455 11.5849 14.4005 11.432 14.4004 11.2617C14.4004 11.1055 14.4403 10.9643 14.5205 10.8389C14.6007 10.7135 14.7141 10.6056 14.8604 10.5156C15.0066 10.4257 15.1861 10.3554 15.3984 10.3057C15.6109 10.2559 15.8478 10.2314 16.1074 10.2314C16.2961 10.2315 16.4952 10.2461 16.7051 10.2744C16.915 10.3028 17.1266 10.3461 17.3389 10.4053C17.5513 10.4644 17.7582 10.539 17.959 10.6289C18.1595 10.7188 18.3447 10.8231 18.5146 10.9414V8.81738C18.1702 8.68491 17.7938 8.58735 17.3857 8.52344C16.9773 8.4595 16.5084 8.42676 15.9795 8.42676ZM2.91699 10.4619H5.86816V18.7988H8.2168V10.4619H11.1816V8.58887H2.91699V10.4619Z"
    />
  </g>
  <defs>
    <clipPath id="clip0_3474_9492">
      <rect width="20.7438" height="20.7438" fill="currentColour" />
    </clipPath>
  </defs>
</svg>
